<svg width="228" height="55" viewBox="0 0 228 55" fill="none" xmlns="http://www.w3.org/2000/svg">
<path d="M19.3 37.45C20.8 39.3 20.7 41.2 19.75 43.25C17.85 47.3 13.2 50.1 9.35 49.4C4.4 48.5 1.05 44.85 0.6 39.85C0.1 34.2 1.6 31.05 5.6 27.6C6.5 26.8 9.3 25.5 10.5 25.45C12.4 25.3 14.3 25.75 15.1 27.8C15.8 29.7 14.6 31 13.05 31.35C11.2 31.75 9.35 32.4 9.35 35.9C9.35 39 13.05 37.75 14.85 37.25C16.35 36.9 17.85 35.7 19.3 37.45ZM39.5566 36.25C40.5566 39.4 39.7066 42.6 37.7566 45.5C35.3566 49.1 32.4566 50.35 28.3066 48.95C21.4066 46.65 18.6566 37.7 23.3066 32.1C26.8066 27.95 32.7566 27.45 36.4566 31.4C37.7566 32.8 39.1066 34.9 39.5566 36.25ZM29.7566 40.25C31.5566 40.3 33.2566 38.3 33.0566 36.5C32.8066 34.25 29.7566 32.9 28.0566 33.75C27.0066 34.3 26.7566 35.55 26.7066 35.75C26.3066 37.65 27.6566 40.15 29.7566 40.25ZM51.5297 19.85C51.4797 22.15 51.3297 24.4 51.2797 26.65C51.1297 31.65 50.9797 36.6 50.8297 41.55C50.7797 42.85 50.9797 44.15 50.8797 45.45C50.7797 47.05 50.7797 48.85 48.6797 49.3C46.5797 49.7 44.4297 49.65 43.1797 47.6C42.3797 46.2 41.8297 44.65 41.5297 43.1C40.5797 38.45 42.5797 26.95 43.5297 21.2C43.7297 20 44.4297 18.55 45.3297 17.9C46.4297 17.1 48.0297 16.65 49.3797 16.7C51.0797 16.8 51.5297 18.4 51.5297 19.85ZM72.6438 17.5C72.9438 20.8 72.9438 24.15 72.7438 27.5C72.4938 31.7 71.9438 35.9 71.5938 40.1C71.0438 45.9 64.8438 50.5 59.0938 49.3C53.1438 48.05 50.6437 39.85 54.5938 34.5C56.4938 31.9 59.0438 30.45 62.2938 30.35C62.8938 30.3 63.5438 30.25 64.5938 30.15C64.4438 27.75 64.4438 25.55 64.1938 23.35C63.8938 20.5 64.3938 17.85 66.4938 15.9C67.3938 15 69.0938 14.25 70.0938 14.5C71.1938 14.8 72.4938 16.35 72.6438 17.5ZM64.0938 40.85C65.3438 40.35 65.7938 38.2 65.0938 37.6C64.4938 37.05 62.8438 37.45 62.2438 38.55C62.1938 38.6 61.6438 39.6 62.1938 40.35C62.5938 41 63.4938 41.05 64.0938 40.85ZM87.941 30.85C92.041 31.45 94.141 36.1 94.091 40.3C94.091 45.9 90.141 49.4 81.141 49.4C76.991 49.4 74.691 47.65 74.291 43.6C74.041 40.75 74.341 37.75 74.591 34.85C74.941 30.45 75.441 26.05 75.991 21.65C76.141 20.25 76.441 17.85 77.141 16.65C77.891 15.25 78.991 14.2 80.241 13.95C82.341 13.6 84.091 15.25 84.591 17.1C85.541 20.45 84.791 22.15 84.091 25.2C83.841 26.2 82.741 29.3 83.391 30.4C84.291 31.95 86.591 30.65 87.941 30.85ZM82.941 43.35C83.841 43.5 85.091 42 85.091 40.6C85.041 38.8 82.941 37.35 82.041 37.75C81.141 38.1 81.241 40.25 81.691 41.6C81.891 42.2 82.241 43.25 82.941 43.35ZM113.432 29C115.132 31.1 115.732 33.4 114.582 36C112.982 39.5 108.832 39.9 107.082 36.9C105.082 37.6 103.982 38.65 104.382 41.2C104.582 42.5 104.732 43.75 104.832 45.05C105.032 47.35 103.982 48.8 101.732 49.35C99.5324 49.9 97.1324 48.85 96.3324 46.85C95.8324 45.55 95.4324 44.1 95.4324 42.75C95.4324 38.85 95.7324 35 95.8824 31.1C95.9824 28.7 96.9324 26.85 99.3324 26.1C102.532 25.55 103.332 27.3 103.932 29.1C105.232 28.55 106.182 28.1 107.232 27.7C109.732 26.8 111.982 27.2 113.432 29ZM133.681 40.6C135.081 42.05 134.231 44.5 134.131 44.75C133.631 46.1 132.631 46.85 131.781 47.45C129.381 49.2 126.781 49.45 125.781 49.5C124.631 49.55 121.681 49.65 119.181 47.7C116.181 45.25 115.981 41.4 115.881 39.95C115.731 36.2 117.281 33.5 118.081 32.2C119.181 30.4 120.281 28.45 122.631 27.65C125.081 26.8 127.281 27.7 127.981 27.95C128.181 28.05 132.131 29.65 132.981 33.5C133.181 34.25 133.481 35.65 132.781 36.95C131.681 39 128.931 39.3 128.581 39.35C125.481 39.65 123.181 37.45 122.431 38.3C122.181 38.55 122.231 39 122.281 39.55C122.381 40.75 123.131 41.5 123.381 41.75C123.531 41.85 124.531 42.75 125.881 42.65C126.631 42.6 126.831 42.25 128.781 41.05C130.831 39.85 131.331 39.75 131.781 39.8C131.931 39.8 132.931 39.85 133.681 40.6ZM124.581 31.55C123.931 31.45 123.031 32.15 123.081 32.95C123.131 33.5 123.531 33.9 123.931 34.1C124.481 34.3 125.181 34.25 125.481 33.85C126.031 33.2 125.481 31.7 124.581 31.55ZM163.663 30.5C164.713 32.65 164.813 35.05 164.713 37.35C164.513 40.9 162.713 43.95 160.463 46.65C157.513 50.25 152.963 50.95 149.963 47.9C149.613 47.55 149.163 47 148.413 47.05C147.713 47.05 147.413 47.6 147.113 47.9C143.513 51.8 140.113 49.95 137.713 46.55C133.763 40.9 135.413 33.3 138.813 28.95C139.613 27.95 141.413 27.2 142.663 27.3C144.463 27.5 145.063 29.25 145.013 31.05C145.013 33.45 144.313 35.8 144.413 38.2C144.413 39.2 144.513 41.05 145.513 41.15C146.463 41.2 147.913 36 150.413 35.95C153.413 35.9 152.713 40.85 153.863 41.05C156.413 41.45 156.413 38.5 156.613 37.45C156.913 35.45 156.813 33.3 157.413 31.4C157.763 30.25 159.063 28.7 160.063 28.6C161.263 28.5 163.213 29.55 163.663 30.5Z" fill="#29344B"/>
<path d="M222.504 38.8434V51.5L210.077 48.9687C194.633 53.3154 181.815 41.9756 178.501 36.0692C171.371 23.3615 179.256 -2.67006 205.106 3.40509C230.955 9.48024 227.476 29.562 222.504 38.8434Z" stroke="#29344B" stroke-width="4"/>
<path d="M210.087 21.5102C203.36 18.8802 198.075 20.0877 195.275 21.5683C194.611 21.919 194.725 22.8096 195.441 23.0375C200.575 24.6739 206.331 24.0194 209.986 23.1281C210.844 22.9191 210.909 21.8315 210.087 21.5102Z" fill="#29344B"/>
<path d="M191.442 23.0344C189.882 23.2807 186.812 24.2658 187.009 26.236C187.255 28.6987 188.533 33.2814 194.297 33.3912M194.297 33.3912C196.86 37.7521 203.145 39.3477 209.666 36.0869C214.22 33.8101 215.128 27.1601 214.986 22.7949C214.946 21.5448 214.209 20.4297 213.084 19.8835C204.843 15.8826 197.402 17.6801 193.409 19.7614C192.281 20.3497 191.678 21.5703 191.762 22.8403C191.817 23.6779 191.906 24.6259 192.04 25.6203M194.297 33.3912C194.247 33.3057 194.198 33.2192 194.151 33.1316C193.643 32.1925 193.234 31.0914 192.905 29.9301M192.04 25.6203C191.307 25.7024 189.841 26.1621 189.841 27.3442C189.841 28.8218 191.66 29.9301 192.905 29.9301M192.04 25.6203C192.229 27.0249 192.507 28.5218 192.905 29.9301" stroke="#29344B" stroke-width="1.5"/>
</svg>
