<svg width="54" height="54" viewBox="0 0 54 54" fill="none" xmlns="http://www.w3.org/2000/svg">
<path d="M48.5045 38.8434V51.5L36.077 48.9687C20.6329 53.3154 7.81543 41.9756 4.50131 36.0692C-2.62906 23.3615 5.25613 -2.67006 31.1057 3.40509C56.9553 9.48024 53.4755 29.562 48.5045 38.8434Z" stroke="#29344B" stroke-width="4"/>
<path d="M37.9059 22.3007C29.1674 18.12 22.5496 20.4582 20.0991 22.3048C20.0046 22.3761 20.0261 22.5202 20.1357 22.5649C26.5665 25.1899 34.4067 23.7471 37.8929 22.5857C38.0249 22.5417 38.0314 22.3608 37.9059 22.3007Z" fill="#29344B" stroke="black" stroke-width="0.157697"/>
<path d="M17.442 23.0344C15.8822 23.2807 12.812 24.2658 13.009 26.236C13.2553 28.6987 14.5331 33.2814 20.2973 33.3912M20.2973 33.3912C22.86 37.7521 29.1447 39.3477 35.6663 36.0869C40.9189 33.4606 41.3211 25.0154 40.8562 20.9703C40.8449 20.8723 40.7863 20.7878 40.7007 20.7387C30.5365 14.9116 21.3071 18.2418 17.8146 20.7266C17.7328 20.7847 17.6881 20.8767 17.6889 20.9771C17.6971 22.0934 17.7914 23.7774 18.0396 25.6203M20.2973 33.3912C20.2471 33.3057 20.1983 33.2192 20.151 33.1316C19.6433 32.1925 19.2338 31.0914 18.9055 29.9301M18.0396 25.6203C17.3068 25.7024 15.8412 26.1621 15.8412 27.3442C15.8412 28.8218 17.66 29.9301 18.9055 29.9301M18.0396 25.6203C18.2288 27.0249 18.5074 28.5218 18.9055 29.9301" stroke="#29344B"/>
</svg>
